<?xml version="1.0" standalone="no"?>
<!DOCTYPE svg PUBLIC "-//W3C//DTD SVG 20010904//EN"
 "http://www.w3.org/TR/2001/REC-SVG-20010904/DTD/svg10.dtd">
<svg version="1.0" xmlns="http://www.w3.org/2000/svg"
 width="400.000000pt" height="400.000000pt" viewBox="0 0 400.000000 400.000000"
 preserveAspectRatio="xMidYMid meet">
<metadata>
Created by potrace 1.11, written by Peter Selinger 2001-2013
</metadata>
<g transform="translate(0.000000,400.000000) scale(0.100000,-0.100000)"
fill="#000000" stroke="none">
<path d="M0 2000 l0 -2000 2000 0 2000 0 0 2000 0 2000 -2000 0 -2000 0 0
-2000z m1540 1475 l0 -325 -325 0 -325 0 0 325 0 325 325 0 325 0 0 -325z
m1540 0 l0 -325 -325 0 -325 0 0 325 0 325 325 0 325 0 0 -325z m770 0 l0
-325 -325 0 -325 0 0 325 0 325 325 0 325 0 0 -325z m-2310 -740 l0 -325 -325
0 -325 0 0 325 0 325 325 0 325 0 0 -325z m770 0 l0 -325 -325 0 -325 0 0 325
0 325 325 0 325 0 0 -325z m770 0 l0 -325 -325 0 -325 0 0 325 0 325 325 0
325 0 0 -325z m770 0 l0 -325 -325 0 -325 0 0 325 0 325 325 0 325 0 0 -325z
m-3080 -740 l0 -325 -325 0 -325 0 0 325 0 325 325 0 325 0 0 -325z m770 0 l0
-325 -325 0 -325 0 0 325 0 325 325 0 325 0 0 -325z m770 0 l0 -325 -325 0
-325 0 0 325 0 325 325 0 325 0 0 -325z m-1540 -740 l0 -325 -325 0 -325 0 0
325 0 325 325 0 325 0 0 -325z m1540 0 l0 -325 -325 0 -325 0 0 325 0 325 325
0 325 0 0 -325z m1540 0 l0 -325 -325 0 -325 0 0 325 0 325 325 0 325 0 0
-325z m-2310 -740 l0 -325 -325 0 -325 0 0 325 0 325 325 0 325 0 0 -325z
m770 0 l0 -325 -325 0 -325 0 0 325 0 325 325 0 325 0 0 -325z m770 0 l0 -325
-325 0 -325 0 0 325 0 325 325 0 325 0 0 -325z"/>
</g>
</svg>
